<svg xmlns="http://www.w3.org/2000/svg" width="62" height="114" viewBox="0 0 62 114"><title>925DCFC6-C41F-45CA-A5AF-327C19C6B9E3</title><g fill="none" fill-rule="evenodd"><path d="M61.93 106.636c0 4.05-3.29 7.33-7.35 7.33l-47.25-.04c-4.05-.01-7.34-3.29-7.33-7.35l.09-99.24c0-4.06 3.29-7.34 7.34-7.34l47.25.04c4.06.01 7.34 3.3 7.34 7.35l-.09 99.25z" fill="#353535"/><path fill="#E37667" d="M58.93 100.05L3.01 100l.07-86.08 55.93.05z"/><path d="M41.13 7.03c0 .76-.61 1.37-1.37 1.37l-17.42-.02a1.36 1.36 0 0 1-1.37-1.37c0-.76.61-1.37 1.37-1.37l17.42.01c.76 0 1.37.62 1.37 1.38" fill="#767676"/><path d="M33.88 107.26c0 1.58-1.34 2.92-2.92 2.92-1.61 0-2.92-1.31-2.91-2.92a2.915 2.915 0 1 1 5.83 0" fill="#647787"/><path d="M6.42 65.916h48.13v-2H6.42zm0 6.59h48.13v-2H6.42zm0 6.59h48.13v-2H6.42zm0 6.6h48.13v-2H6.42zm0 6.59h48.13v-2H6.42zm19.65-60.89a5.685 5.685 0 1 1-11.37 0c0-3.14 2.54-5.68 5.69-5.68 3.14 0 5.68 2.54 5.68 5.68m20.2 0c0 3.14-2.55 5.69-5.69 5.69-3.14 0-5.69-2.55-5.69-5.69 0-3.14 2.55-5.68 5.69-5.68 3.14 0 5.69 2.54 5.69 5.68m-12.52 23.6c-2.84-9.66-7.76-16.04-13.36-16.04s-10.53 6.38-13.37 16.04h26.73zm20.2 0c-2.85-9.66-7.77-16.04-13.37-16.04-3.2 0-6.17 2.08-8.67 5.66 1.62 2.87 3.01 6.37 4.08 10.38h17.96z" fill="#FFF"/></g></svg>