<svg xmlns="http://www.w3.org/2000/svg" xmlns:xlink="http://www.w3.org/1999/xlink" width="149" height="118" viewBox="0 0 149 118" version="1.1"><title>53880442-74EB-4557-A24F-CB924EB1B360</title><desc>Created with sketchtool.</desc><defs><polygon id="path-1" points="0 0.13 0 57.75 59.48 57.75 59.48 0.13 0 0.13"/><polygon id="path-3" points="88.42 57.55 88.42 114.89 0 114.89 0 57.55 0 0.21 88.42 0.21"/><polygon id="path-5" points="0 117.03 88.42 117.03 88.42 0 0 0"/></defs><g id="Page-1" stroke="none" stroke-width="1" fill="none" fill-rule="evenodd"><g id="HH-HP-Update" transform="translate(-118.000000, -1047.000000)"><g id="Group-11" transform="translate(53.000000, 983.000000)"><g id="Describe-your-needs"><g id="Group-6"><g id="Group-5"><g id="Describe-Needs"><path d="M96.47 68.48C80.05 68.48 66.73 81.38 66.73 97.29 66.73 113.21 80.05 126.1 96.47 126.1 112.9 126.1 126.21 113.21 126.21 97.29 126.21 81.38 112.9 68.48 96.47 68.48" id="Fill-80" fill-opacity="0.25" fill="#020302"/><g id="Group-84" stroke-width="1" transform="translate(65.000000, 66.676042)"><mask id="mask-2" fill="white"><use xlink:href="#path-1"/></mask><g id="Clip-83"/><path d="M59.48 28.94C59.48 44.85 46.16 57.75 29.74 57.75 13.31 57.75 0 44.85 0 28.94 0 13.03 13.31 0.13 29.74 0.13 46.16 0.13 59.48 13.03 59.48 28.94" id="Fill-82" fill="#FEFEFE" mask="url(#mask-2)"/></g><path d="M123.41 95.62C123.41 110.96 110.58 123.4 94.74 123.4 78.9 123.4 66.06 110.96 66.06 95.62 66.06 80.27 78.9 67.84 94.74 67.84 110.58 67.84 123.41 80.27 123.41 95.62" id="Fill-85" fill="#757575"/><path d="M121.77 95.94L115.23 95.94C114.03 87.53 106.57 81.05 97.55 81.05 87.7 81.05 79.7 88.79 79.7 98.34 79.7 107.9 87.7 115.64 97.55 115.64 106.57 115.64 114.03 109.16 115.23 100.75L121.77 100.75C122.21 100.75 122.63 100.63 122.98 100.43 123.21 99.16 123.35 97.87 123.4 96.55 122.96 96.17 122.39 95.94 121.77 95.94" id="Fill-87" fill="#545454"/><path d="M118.95 93.22L112.42 93.22C111.21 84.8 103.76 78.32 94.74 78.32 84.88 78.32 76.89 86.06 76.89 95.62 76.89 105.17 84.88 112.91 94.74 112.91 103.76 112.91 111.21 106.43 112.42 98.02L118.95 98.02C120.31 98.02 121.4 96.95 121.4 95.64L121.4 95.59C121.4 94.28 120.31 93.22 118.95 93.22" id="Fill-89" fill="#F8F9F9"/><path d="M109.38 95.62C109.38 103.45 102.83 109.8 94.74 109.8 86.65 109.8 80.1 103.45 80.1 95.62 80.1 87.78 86.65 81.43 94.74 81.43 102.83 81.43 109.38 87.78 109.38 95.62" id="Fill-91" fill="#E37566"/><path d="M105.77 86.3C103.38 83.64 99.98 81.86 96.15 81.5L96.15 81.5C96.06 81.49 95.98 81.49 95.89 81.48 95.76 81.47 95.62 81.46 95.49 81.45 95.24 81.44 94.99 81.43 94.74 81.43 94.51 81.43 94.29 81.44 94.07 81.45 94 81.45 93.93 81.46 93.86 81.46 93.7 81.47 93.54 81.48 93.39 81.5 93.31 81.5 93.24 81.51 93.17 81.52 92.96 81.54 92.76 81.56 92.56 81.59 92.47 81.6 92.39 81.62 92.31 81.63 92.18 81.65 92.06 81.67 91.93 81.7 91.83 81.72 91.72 81.74 91.62 81.76 91.52 81.78 91.42 81.8 91.32 81.83 91.21 81.85 91.1 81.88 90.99 81.9 90.82 81.95 90.65 82 90.48 82.04 84.47 83.81 80.1 89.22 80.1 95.62 80.1 99.88 82.04 103.7 85.12 106.3 82.87 103.81 81.51 100.55 81.51 96.98 81.51 91.52 84.7 86.78 89.37 84.41L88.4 86.46C88.16 86.98 88.64 87.75 89.48 88.19L89.51 88.21C90.34 88.66 91.26 88.65 91.59 88.17L95.24 82.83C95.54 82.81 95.84 82.8 96.15 82.8 99.83 82.8 103.2 84.12 105.77 86.3" id="Fill-93" fill-opacity="0.31" fill="#020302"/><path d="M91 88.48L90.97 88.49C90.1 88.87 89.18 88.79 88.89 88.28L83.05 77.94C82.35 76.69 82.94 75.07 84.44 74.42L84.49 74.39C85.99 73.74 87.63 74.39 88.13 75.74L92.22 86.84C92.41 87.38 91.87 88.1 91 88.48" id="Fill-95" fill="#545454"/><path d="M84.05 78.45C83.77 77.95 83.72 77.37 83.91 76.81 84.13 76.19 84.62 75.68 85.27 75.4L85.33 75.37C85.67 75.22 86.03 75.15 86.39 75.15 86.84 75.15 87.26 75.27 87.61 75.48 87.22 74.86 86.51 74.48 85.7 74.48 85.33 74.48 84.98 74.55 84.63 74.7L84.58 74.72C83.93 75.01 83.43 75.52 83.22 76.14 83.03 76.7 83.07 77.28 83.36 77.78L89.2 88.12C89.27 88.25 89.43 88.33 89.65 88.37L84.05 78.45Z" id="Fill-97" fill="#FCFEFE"/></g><g id="Group-4" transform="translate(123.294118, 64.880597)"><rect id="Rectangle-50" fill="#CBCBCB" x="0" y="0.94" width="90.35" height="115.66" rx="5"/><g id="Page-1" transform="translate(0.941176, 0.000000)"><g id="Group-3" transform="translate(0.000000, 2.143063)"><mask id="mask-4" fill="white"><use xlink:href="#path-3"/></mask><g id="Clip-2"/><path d="M0 111.05C0 113.17 1.72 114.89 3.84 114.89L84.58 114.89C86.7 114.89 88.42 113.17 88.42 111.05L88.42 4.05C88.42 1.93 86.7 0.21 84.58 0.21L3.84 0.21C1.72 0.21 0 1.93 0 4.05L0 111.05Z" id="Fill-1" fill="#CBCBCB" mask="url(#mask-4)"/></g><path d="M0 110.84C0 112.96 1.72 114.68 3.84 114.68L82.23 114.68C84.35 114.68 86.07 112.96 86.07 110.84L86.07 3.84C86.07 1.72 84.35 0 82.23 0L3.84 0C1.72 0 0 1.72 0 3.84L0 110.84Z" id="Fill-4" fill="#FFFFFF"/><polygon id="Fill-6" fill="#E37667" points="6.77 104.88 79.3 104.88 79.3 9.8 6.77 9.8"/><g id="Group-2"><mask id="mask-6" fill="white"><use xlink:href="#path-5"/></mask><g id="Clip-7"/><g id="Group" mask="url(#mask-6)"><g transform="translate(8.489602, 10.278929)"><polygon id="Fill-45" fill="#EFEFEF" points="0 92.33 68.73 92.33 68.73 0 0 0"/><polygon id="Fill-46" fill="#E0E0DF" points="35.51 13.36 61.61 13.36 61.61 10.09 35.51 10.09"/><polygon id="Fill-47" fill="#E0E0DF" points="35.51 18.58 61.61 18.58 61.61 15.3 35.51 15.3"/><polygon id="Fill-48" fill="#E0E0DF" points="35.51 23.79 61.61 23.79 61.61 20.52 35.51 20.52"/><polygon id="Fill-49" fill="#E0E0DF" points="35.51 29.01 61.61 29.01 61.61 25.74 35.51 25.74"/><polygon id="Fill-50" fill="#E0E0DF" points="35.51 34.22 52.49 34.22 52.49 30.95 35.51 30.95"/><polygon id="Fill-51" fill="#E0E0DF" points="7 46.35 61.61 46.35 61.61 43.08 7 43.08"/><polygon id="Fill-52" fill="#E0E0DF" points="7 51.57 61.61 51.57 61.61 48.3 7 48.3"/><polygon id="Fill-53" fill="#E0E0DF" points="7 56.79 61.61 56.79 61.61 53.51 7 53.51"/><polygon id="Fill-54" fill="#E0E0DF" points="7 62 50.54 62 50.54 58.73 7 58.73"/><polygon id="Fill-55" fill="#E0E0DF" points="7 72.43 61.61 72.43 61.61 69.16 7 69.16"/><polygon id="Fill-56" fill="#E0E0DF" points="7 77.65 61.61 77.65 61.61 74.38 7 74.38"/><polygon id="Fill-57" fill="#E0E0DF" points="7 82.87 50.48 82.87 50.48 79.6 7 79.6"/><path d="M18.89 22.56L7.58 26.55C5.55 19.76 8.97 12.47 15.22 10.26 16.47 9.82 17.58 9.63 18.89 9.63L18.89 22.56Z" id="Fill-58" fill="#E37566"/><path d="M18.89 22.56L11.9 33.02C9.78 31.34 8.39 29.27 7.58 26.55L18.89 22.56Z" id="Fill-60" fill="#F4BDB5"/><path d="M18.89 22.56L28.52 30.16C24.66 35.93 17.22 37.21 11.9 33.02L18.89 22.56Z" id="Fill-62" fill="#E0E0DF"/><path d="M18.89 22.56L30.21 18.56C31.43 22.64 30.84 26.69 28.52 30.16L18.89 22.56Z" id="Fill-64" fill="#757575"/><path d="M18.89 22.56L18.89 9.63C24.15 9.63 28.58 13.13 30.21 18.56L18.89 22.56Z" id="Fill-66" fill="#F4BDB5"/></g></g></g><path d="M38.21 5.33C37.65 5.33 37.19 5.79 37.19 6.35 37.19 6.91 37.65 7.37 38.21 7.37L48.71 7.37C49.27 7.37 49.73 6.91 49.73 6.35 49.73 5.79 49.27 5.33 48.71 5.33L38.21 5.33Z" id="Fill-8" fill="#D5E0E2"/><path d="M45.32 109.74C45.32 108.45 44.28 107.41 42.99 107.41 41.7 107.41 40.66 108.45 40.66 109.74 40.66 111.02 41.69 112.07 42.99 112.07 44.28 112.07 45.32 111.03 45.32 109.74" id="Fill-9" fill="#D5D8E2"/><polygon id="Fill-12" fill="#E1E1E1" points="6.77 104.88 9.27 104.88 9.27 9.8 6.77 9.8"/><polygon id="Fill-13" fill="#E1E1E1" points="76.8 104.88 79.3 104.88 79.3 9.8 76.8 9.8"/><polygon id="Fill-14" fill="#E1E1E1" points="6.77 12.3 79.3 12.3 79.3 9.8 6.77 9.8"/><polygon id="Fill-15" fill="#E1E1E1" points="6.77 104.88 79.3 104.88 79.3 102.38 6.77 102.38"/></g></g></g></g></g></g></g></g></svg>