<svg xmlns="http://www.w3.org/2000/svg" xmlns:xlink="http://www.w3.org/1999/xlink" width="130" height="119" viewBox="0 0 130 119" version="1.1"><title>7CBCD5E1-14D5-4B77-B708-50E72B905A9B</title><desc>Created with sketchtool.</desc><defs><polygon id="path-1" points="130 93.77 0 93.77 0 0.21 130 0.21"/><polygon id="path-3" points="0 118.33 130 118.33 130 0.22 0 0.22"/></defs><g id="Page-1" stroke="none" stroke-width="1" fill="none" fill-rule="evenodd"><g id="HH-HP-Update" transform="translate(-535.000000, -1026.000000)"><g id="Group-11" transform="translate(53.000000, 983.000000)"><g id="Choose-Your-Hero" transform="translate(440.000000, 4.000000)"><g id="Group" transform="translate(42.000000, 39.000000)"><g id="Page-1"><g id="Group-3" transform="translate(0.000000, 24.788162)"><mask id="mask-2" fill="white"><use xlink:href="#path-1"/></mask><g id="Clip-2"/><path d="M77.57 10.05L52.43 10.05C50.85 10.05 49.58 8.77 49.58 7.21 49.58 5.64 50.85 4.36 52.43 4.36L77.57 4.36C79.15 4.36 80.42 5.64 80.42 7.2 80.42 8.77 79.15 10.05 77.57 10.05M125.73 0.21L4.27 0.21C1.91 0.21 0 2.12 0 4.47L0 89.52C0 91.87 1.91 93.77 4.27 93.77L125.73 93.77C128.09 93.77 130 91.87 130 89.52L130 4.47C130 2.12 128.09 0.21 125.73 0.21" id="Fill-1" fill="#E0E0E0" mask="url(#mask-2)"/></g><polygon id="Fill-4" fill="#FFFFFF" points="5.7 112.89 124.3 112.89 124.3 40.14 5.7 40.14"/><path d="M5.82 112.77L124.18 112.77 124.18 40.26 5.82 40.26 5.82 112.77ZM5.58 113L124.42 113 124.42 40.02 5.58 40.02 5.58 113Z" id="Fill-5" fill="#757575"/><g id="Group-23" transform="translate(0.000000, 0.228185)"><path d="M77.57 34.61L52.43 34.61C50.85 34.61 49.58 33.33 49.58 31.77 49.58 30.2 50.85 28.92 52.43 28.92L77.57 28.92C79.15 28.92 80.42 30.2 80.42 31.76 80.42 33.33 79.15 34.61 77.57 34.61L77.57 34.61ZM77.57 27.51L52.43 27.51C50.06 27.51 48.15 29.41 48.15 31.76L48.15 31.77C48.15 34.12 50.06 36.03 52.43 36.03L77.57 36.03C79.94 36.03 81.85 34.12 81.85 31.77L81.85 31.76C81.85 29.41 79.94 27.51 77.57 27.51L77.57 27.51Z" id="Fill-6" fill="#FFFFFF"/><path d="M76.76 20.55L72.25 6.32C71.66 2.86 68.64 0.22 65 0.22 61.36 0.22 58.34 2.86 57.75 6.32L53.24 20.55 76.76 20.55Z" id="Fill-8" fill="#D7DDE0"/><mask id="mask-4" fill="white"><use xlink:href="#path-3"/></mask><g id="Clip-11"/><polygon id="Fill-10" fill="#FFFFFF" mask="url(#mask-4)" points="53.24 31.9 76.76 31.9 76.76 20.45 53.24 20.45"/><polygon id="Fill-12" fill="#D7DDE0" mask="url(#mask-4)" points="53.24 32.05 76.76 32.05 76.76 29.69 53.24 29.69"/><path d="M70.46 7.46C70.46 10.46 68.02 12.9 65 12.9 61.98 12.9 59.54 10.46 59.54 7.46 59.54 4.45 61.98 2.02 65 2.02 68.02 2.02 70.46 4.45 70.46 7.46" id="Fill-13" fill="#FFFFFF" mask="url(#mask-4)"/><path d="M69.27 7.46C69.27 9.81 67.36 11.71 65 11.71 62.64 11.71 60.73 9.81 60.73 7.46 60.73 5.1 62.64 3.2 65 3.2 67.36 3.2 69.27 5.1 69.27 7.46" id="Fill-14" fill="#757575" mask="url(#mask-4)"/><polygon id="Fill-15" fill="#F6BEB6" mask="url(#mask-4)" points="12.42 103.28 62.8 103.28 62.8 47.25 12.42 47.25"/><path d="M51.14 67.1C51.14 74.54 45.08 80.57 37.61 80.57 30.14 80.57 24.09 74.54 24.09 67.1 24.09 59.66 30.14 53.63 37.61 53.63 45.08 53.63 51.14 59.66 51.14 67.1" id="Fill-16" fill="#E37667" mask="url(#mask-4)"/><path d="M58.76 87.39L47.66 84.15C46.17 83.41 43.6 82.81 41.93 82.81L33.3 82.81C31.63 82.81 29.06 83.41 27.56 84.15L16.47 87.39C14.97 88.14 13.64 90.08 13.49 91.74L12.42 103.28 62.8 103.28 61.74 91.74C61.59 90.08 60.25 88.14 58.76 87.39" id="Fill-17" fill="#E37667" mask="url(#mask-4)"/><polygon id="Fill-18" fill="#545454" mask="url(#mask-4)" points="69.27 57.88 118.7 57.88 118.7 47.06 69.27 47.06"/><polygon id="Fill-19" fill="#757575" mask="url(#mask-4)" points="69.27 69.3 118.7 69.3 118.7 61.98 69.27 61.98"/><polygon id="Fill-20" fill="#757575" mask="url(#mask-4)" points="69.27 80.65 118.7 80.65 118.7 73.33 69.27 73.33"/><polygon id="Fill-21" fill="#757575" mask="url(#mask-4)" points="69.27 92 118.7 92 118.7 84.68 69.27 84.68"/><polygon id="Fill-22" fill="#757575" mask="url(#mask-4)" points="69.27 103.36 98.57 103.36 98.57 96.04 69.27 96.04"/></g></g></g></g></g></g></g></svg>